<svg width="516" height="594" viewBox="0 0 516 594" fill="none" xmlns="http://www.w3.org/2000/svg">
    <g id="Important questions for your career">
        <g id="3">
            <g id="Ellipse 151" filter="url(#filter0_dd_15020_123223)">
                <path d="M195.812 130.158C199.354 158.469 179.275 184.291 150.965 187.834C142.385 188.907 134.033 187.811 126.461 184.974C116.952 181.411 108.673 175.102 102.714 166.896C97.7603 160.075 94.41 151.942 93.2894 142.986C89.7471 114.675 109.826 88.8534 138.137 85.3111C166.448 81.7687 192.27 101.848 195.812 130.158Z" fill="white"/>
                <path d="M195.812 130.158C199.354 158.469 179.275 184.291 150.965 187.834C142.385 188.907 134.033 187.811 126.461 184.974C116.952 181.411 108.673 175.102 102.714 166.896C97.7603 160.075 94.41 151.942 93.2894 142.986C89.7471 114.675 109.826 88.8534 138.137 85.3111C166.448 81.7687 192.27 101.848 195.812 130.158Z" fill="url(#paint0_linear_15020_123223)"/>
                <path d="M102.714 166.896L96.6809 195.671C96.3409 197.293 98.0077 198.601 99.5023 197.885L126.461 184.974C116.952 181.411 108.673 175.102 102.714 166.896Z" fill="white"/>
                <path d="M102.714 166.896L96.6809 195.671C96.3409 197.293 98.0077 198.601 99.5023 197.885L126.461 184.974C116.952 181.411 108.673 175.102 102.714 166.896Z" fill="url(#paint1_linear_15020_123223)"/>
            </g>
            <g id="?" opacity="0.6" filter="url(#filter1_d_15020_123223)">
                <path d="M148.501 145.285C147.596 145.813 146.435 145.507 145.907 144.603L145.598 144.073C141.128 136.413 149.024 130.577 145.397 124.363C143.598 121.28 139.563 120.341 135.853 122.506C134.053 123.556 132.836 125.106 132.105 126.288C131.56 127.169 130.436 127.628 129.488 127.211C128.649 126.841 128.234 125.905 128.656 125.091C129.463 123.535 131.128 121.065 134.17 119.29C139.662 116.085 145.858 117.184 148.782 122.194C153.449 130.191 145.219 135.898 148.93 142.257L149.183 142.691C149.711 143.595 149.406 144.757 148.501 145.285ZM153.698 154.135C152.674 154.733 151.359 154.387 150.761 153.363C150.163 152.338 150.509 151.023 151.533 150.425C152.558 149.828 153.873 150.173 154.47 151.198C155.068 152.222 154.722 153.537 153.698 154.135Z" fill="#92CCF1"/>
                <path d="M145.475 144.855C146.142 145.998 147.61 146.384 148.753 145.717C149.896 145.049 150.282 143.582 149.615 142.439L149.362 142.005C147.728 139.205 148.563 136.56 149.532 133.496C149.585 133.328 149.638 133.16 149.691 132.99C150.707 129.751 151.662 126.138 149.213 121.942C146.12 116.641 139.592 115.547 133.918 118.858C130.769 120.696 129.047 123.251 128.212 124.861C127.636 125.972 128.228 127.202 129.287 127.668C130.504 128.205 131.879 127.603 132.53 126.551C133.237 125.407 134.401 123.932 136.105 122.938C139.621 120.886 143.33 121.813 144.965 124.615C146.571 127.366 145.766 130.022 144.838 133.083C144.793 133.232 144.748 133.381 144.703 133.532C143.737 136.736 142.816 140.297 145.166 144.325L145.475 144.855ZM150.329 153.615C151.066 154.877 152.687 155.304 153.95 154.567C155.213 153.83 155.639 152.209 154.902 150.946C154.165 149.683 152.544 149.257 151.281 149.994C150.018 150.731 149.592 152.352 150.329 153.615Z" stroke="#92CCF1"/>
            </g>
        </g>
        <g id="2">
            <g id="Ellipse 151_2" filter="url(#filter2_dd_15020_123223)">
                <path d="M317.237 107.597C359.933 107.597 394.545 142.208 394.545 184.904C394.545 197.844 391.366 210.041 385.746 220.757C378.689 234.214 367.783 245.336 354.491 252.66C343.442 258.748 330.744 262.212 317.237 262.212C274.541 262.212 239.93 227.6 239.93 184.904C239.93 142.208 274.541 107.597 317.237 107.597Z" fill="white"/>
                <path d="M317.237 107.597C359.933 107.597 394.545 142.208 394.545 184.904C394.545 197.844 391.366 210.041 385.746 220.757C378.689 234.214 367.783 245.336 354.491 252.66C343.442 258.748 330.744 262.212 317.237 262.212C274.541 262.212 239.93 227.6 239.93 184.904C239.93 142.208 274.541 107.597 317.237 107.597Z" fill="url(#paint2_linear_15020_123223)"/>
                <path d="M354.491 252.66L397.998 267.618C399.565 268.156 401.07 266.665 400.545 265.093L385.746 220.757C378.689 234.214 367.783 245.336 354.491 252.66Z" fill="white"/>
                <path d="M354.491 252.66L397.998 267.618C399.565 268.156 401.07 266.665 400.545 265.093L385.746 220.757C378.689 234.214 367.783 245.336 354.491 252.66Z" fill="url(#paint3_linear_15020_123223)"/>
            </g>
            <g id="?_2" opacity="0.6" filter="url(#filter3_d_15020_123223)">
                <path d="M314.812 194.534C313.407 193.839 312.831 192.137 313.526 190.732L313.933 189.909C319.817 178.013 333.614 183.067 338.387 173.416C340.756 168.627 338.603 162.813 332.842 159.964C330.045 158.581 327.108 158.337 325.028 158.399C323.479 158.444 321.979 157.419 321.72 155.891C321.49 154.539 322.317 153.248 323.682 153.105C326.29 152.83 330.747 152.875 335.472 155.212C344.001 159.43 347.734 168.075 343.885 175.856C337.742 188.276 323.832 182.699 318.947 192.575L318.614 193.248C317.919 194.653 316.217 195.229 314.812 194.534ZM307.849 208.224C306.364 207.49 305.755 205.691 306.49 204.205L306.679 203.823C307.414 202.337 309.213 201.729 310.698 202.463L311.081 202.653C312.566 203.387 313.175 205.187 312.44 206.672L312.251 207.055C311.516 208.54 309.717 209.148 308.232 208.414L307.849 208.224Z" fill="#92CCF1"/>
                <path d="M313.078 190.51C312.261 192.163 312.938 194.165 314.59 194.982C316.243 195.8 318.245 195.123 319.062 193.47L319.395 192.797C321.596 188.346 325.693 187.182 330.294 185.875C330.555 185.8 330.818 185.726 331.082 185.65C335.956 184.252 341.161 182.492 344.333 176.077C348.331 167.994 344.411 159.076 335.693 154.764C330.857 152.372 326.298 152.327 323.629 152.607C321.932 152.786 320.957 154.386 321.227 155.975C321.536 157.794 323.293 158.95 325.043 158.898C327.077 158.839 329.924 159.079 332.62 160.412C338.18 163.162 340.163 168.698 337.939 173.194C335.776 177.567 331.694 178.779 327.132 180.134C326.901 180.202 326.668 180.272 326.433 180.342C321.641 181.775 316.528 183.534 313.485 189.687L313.078 190.51ZM306.042 203.984C305.185 205.716 305.895 207.816 307.627 208.673L308.01 208.862C309.743 209.719 311.842 209.009 312.699 207.277L312.888 206.894C313.745 205.161 313.036 203.062 311.303 202.205L310.92 202.015C309.187 201.158 307.088 201.868 306.231 203.601L306.042 203.984Z" stroke="#92CCF1"/>
            </g>
        </g>
        <g id="1">
            <g id="Ellipse 151_3" filter="url(#filter4_dd_15020_123223)">
                <path d="M351 340.396C351 411.583 293.291 469.291 222.104 469.291C200.53 469.291 180.194 463.991 162.326 454.621C139.889 442.855 121.345 424.671 109.134 402.508C98.9836 384.087 93.2083 362.915 93.2083 340.396C93.2083 269.208 150.917 211.5 222.104 211.5C293.291 211.5 351 269.208 351 340.396Z" fill="white"/>
                <path d="M351 340.396C351 411.583 293.291 469.291 222.104 469.291C200.53 469.291 180.194 463.991 162.326 454.621C139.889 442.855 121.345 424.671 109.134 402.508C98.9836 384.087 93.2083 362.915 93.2083 340.396C93.2083 269.208 150.917 211.5 222.104 211.5C293.291 211.5 351 269.208 351 340.396Z" fill="url(#paint4_linear_15020_123223)"/>
                <path d="M109.134 402.508L85.9496 469.945C84.3333 474.647 88.8078 479.161 93.5234 477.587L162.326 454.621C139.889 442.855 121.345 424.671 109.134 402.508Z" fill="white"/>
                <path d="M109.134 402.508L85.9496 469.945C84.3333 474.647 88.8078 479.161 93.5234 477.587L162.326 454.621C139.889 442.855 121.345 424.671 109.134 402.508Z" fill="url(#paint5_linear_15020_123223)"/>
            </g>
            <g id="Union" filter="url(#filter5_di_15020_123223)">
                <path fill-rule="evenodd" clip-rule="evenodd" d="M210.583 358.094V361.357C210.583 365.223 213.717 368.357 217.583 368.357H221.046C224.912 368.357 228.046 365.223 228.046 361.357V358.373C228.046 351.531 232.277 347.685 238.509 342.018L238.511 342.017C238.736 341.812 238.965 341.604 239.195 341.394C245.532 335.624 252.958 328.332 252.958 314.952C252.958 297.78 238.676 286.319 221.124 286.319C210.263 286.319 202.295 290.744 198.551 293.335C195.225 295.638 195.006 299.948 197.048 302.762L198.77 305.135C201.151 308.417 205.517 308.817 208.535 307.017C211.203 305.427 215.674 303.365 220.706 303.365C229.632 303.365 234.938 309.068 234.938 315.369C234.938 322.093 230.728 326.01 224.565 331.744L224.034 332.239C217.877 337.974 210.583 345.202 210.583 358.094ZM210.026 382.248V386.964C210.026 390.83 213.16 393.964 217.026 393.964H221.742C225.608 393.964 228.742 390.83 228.742 386.964V382.248C228.742 378.382 225.608 375.248 221.742 375.248H217.026C213.16 375.248 210.026 378.382 210.026 382.248ZM217.583 364.357C215.926 364.357 214.583 363.014 214.583 361.357V358.094C214.583 346.453 221.324 340.204 227.713 334.281C233.468 328.947 238.938 323.877 238.938 315.369C238.938 306.463 231.423 299.365 220.707 299.365C220.707 299.365 220.707 299.365 220.708 299.365C231.424 299.365 238.939 306.462 238.939 315.369C238.939 323.877 233.47 328.947 227.715 334.281C221.326 340.204 214.584 346.453 214.584 358.094V361.357C214.584 363.014 215.927 364.357 217.584 364.357H217.583ZM221.046 364.357H221.048C222.705 364.357 224.048 363.014 224.048 361.357V358.373C224.048 349.713 229.583 344.703 235.435 339.405C241.998 333.465 248.959 327.164 248.959 314.952C248.959 300.478 236.991 290.319 221.125 290.319C211.361 290.319 204.182 294.303 200.829 296.624C199.577 297.491 199.393 299.181 200.288 300.414L202.009 302.786C202.633 303.647 203.632 304.084 204.653 304.084C203.632 304.084 202.632 303.647 202.007 302.786L200.286 300.414C199.392 299.181 199.576 297.491 200.828 296.624C204.181 294.303 211.359 290.319 221.124 290.319C236.989 290.319 248.958 300.478 248.958 314.952C248.958 327.164 241.997 333.465 235.434 339.405C229.582 344.703 224.046 349.713 224.046 358.373V361.357C224.046 363.014 222.703 364.357 221.046 364.357ZM217.026 389.964C215.369 389.964 214.026 388.621 214.026 386.964V382.248C214.026 380.591 215.369 379.248 217.026 379.248H217.028C215.371 379.248 214.028 380.591 214.028 382.248V386.964C214.028 388.621 215.371 389.964 217.028 389.964H217.026Z" fill="url(#paint6_linear_15020_123223)"/>
            </g>
        </g>
    </g>
    <defs>
        <filter id="filter0_dd_15020_123223" x="7.88281" y="0.905762" width="303.336" height="313.18" filterUnits="userSpaceOnUse" color-interpolation-filters="sRGB">
            <feFlood flood-opacity="0" result="BackgroundImageFix"/>
            <feColorMatrix in="SourceAlpha" type="matrix" values="0 0 0 0 0 0 0 0 0 0 0 0 0 0 0 0 0 0 127 0" result="hardAlpha"/>
            <feOffset/>
            <feGaussianBlur stdDeviation="10"/>
            <feComposite in2="hardAlpha" operator="out"/>
            <feColorMatrix type="matrix" values="0 0 0 0 0.109804 0 0 0 0 0.458824 0 0 0 0 0.866667 0 0 0 0.1 0"/>
            <feBlend mode="normal" in2="BackgroundImageFix" result="effect1_dropShadow_15020_123223"/>
            <feColorMatrix in="SourceAlpha" type="matrix" values="0 0 0 0 0 0 0 0 0 0 0 0 0 0 0 0 0 0 127 0" result="hardAlpha"/>
            <feOffset dx="15" dy="16"/>
            <feGaussianBlur stdDeviation="50"/>
            <feComposite in2="hardAlpha" operator="out"/>
            <feColorMatrix type="matrix" values="0 0 0 0 0.109804 0 0 0 0 0.458824 0 0 0 0 0.866667 0 0 0 0.2 0"/>
            <feBlend mode="normal" in2="effect1_dropShadow_15020_123223" result="effect2_dropShadow_15020_123223"/>
            <feBlend mode="normal" in="SourceGraphic" in2="effect2_dropShadow_15020_123223" result="shape"/>
        </filter>
        <filter id="filter1_d_15020_123223" x="113.484" y="102.482" width="56.2773" height="66.9458" filterUnits="userSpaceOnUse" color-interpolation-filters="sRGB">
            <feFlood flood-opacity="0" result="BackgroundImageFix"/>
            <feColorMatrix in="SourceAlpha" type="matrix" values="0 0 0 0 0 0 0 0 0 0 0 0 0 0 0 0 0 0 127 0" result="hardAlpha"/>
            <feOffset/>
            <feGaussianBlur stdDeviation="7"/>
            <feComposite in2="hardAlpha" operator="out"/>
            <feColorMatrix type="matrix" values="0 0 0 0 0.438403 0 0 0 0 0.721767 0 0 0 0 0.983333 0 0 0 0.07 0"/>
            <feBlend mode="normal" in2="BackgroundImageFix" result="effect1_dropShadow_15020_123223"/>
            <feBlend mode="normal" in="SourceGraphic" in2="effect1_dropShadow_15020_123223" result="shape"/>
        </filter>
        <filter id="filter2_dd_15020_123223" x="154.93" y="23.5967" width="360.723" height="360.133" filterUnits="userSpaceOnUse" color-interpolation-filters="sRGB">
            <feFlood flood-opacity="0" result="BackgroundImageFix"/>
            <feColorMatrix in="SourceAlpha" type="matrix" values="0 0 0 0 0 0 0 0 0 0 0 0 0 0 0 0 0 0 127 0" result="hardAlpha"/>
            <feOffset/>
            <feGaussianBlur stdDeviation="10"/>
            <feComposite in2="hardAlpha" operator="out"/>
            <feColorMatrix type="matrix" values="0 0 0 0 0.109804 0 0 0 0 0.458824 0 0 0 0 0.866667 0 0 0 0.1 0"/>
            <feBlend mode="normal" in2="BackgroundImageFix" result="effect1_dropShadow_15020_123223"/>
            <feColorMatrix in="SourceAlpha" type="matrix" values="0 0 0 0 0 0 0 0 0 0 0 0 0 0 0 0 0 0 127 0" result="hardAlpha"/>
            <feOffset dx="15" dy="16"/>
            <feGaussianBlur stdDeviation="50"/>
            <feComposite in2="hardAlpha" operator="out"/>
            <feColorMatrix type="matrix" values="0 0 0 0 0.109804 0 0 0 0 0.458824 0 0 0 0 0.866667 0 0 0 0.2 0"/>
            <feBlend mode="normal" in2="effect1_dropShadow_15020_123223" result="effect2_dropShadow_15020_123223"/>
            <feBlend mode="normal" in="SourceGraphic" in2="effect2_dropShadow_15020_123223" result="shape"/>
        </filter>
        <filter id="filter3_d_15020_123223" x="291.18" y="137.989" width="69.2227" height="85.7363" filterUnits="userSpaceOnUse" color-interpolation-filters="sRGB">
            <feFlood flood-opacity="0" result="BackgroundImageFix"/>
            <feColorMatrix in="SourceAlpha" type="matrix" values="0 0 0 0 0 0 0 0 0 0 0 0 0 0 0 0 0 0 127 0" result="hardAlpha"/>
            <feOffset/>
            <feGaussianBlur stdDeviation="7"/>
            <feComposite in2="hardAlpha" operator="out"/>
            <feColorMatrix type="matrix" values="0 0 0 0 0.438403 0 0 0 0 0.721767 0 0 0 0 0.983333 0 0 0 0.07 0"/>
            <feBlend mode="normal" in2="BackgroundImageFix" result="effect1_dropShadow_15020_123223"/>
            <feBlend mode="normal" in="SourceGraphic" in2="effect1_dropShadow_15020_123223" result="shape"/>
        </filter>
        <filter id="filter4_dd_15020_123223" x="0.613281" y="127.5" width="465.387" height="466.407" filterUnits="userSpaceOnUse" color-interpolation-filters="sRGB">
            <feFlood flood-opacity="0" result="BackgroundImageFix"/>
            <feColorMatrix in="SourceAlpha" type="matrix" values="0 0 0 0 0 0 0 0 0 0 0 0 0 0 0 0 0 0 127 0" result="hardAlpha"/>
            <feOffset dx="15" dy="16"/>
            <feGaussianBlur stdDeviation="50"/>
            <feComposite in2="hardAlpha" operator="out"/>
            <feColorMatrix type="matrix" values="0 0 0 0 0.109804 0 0 0 0 0.458824 0 0 0 0 0.866667 0 0 0 0.2 0"/>
            <feBlend mode="normal" in2="BackgroundImageFix" result="effect1_dropShadow_15020_123223"/>
            <feColorMatrix in="SourceAlpha" type="matrix" values="0 0 0 0 0 0 0 0 0 0 0 0 0 0 0 0 0 0 127 0" result="hardAlpha"/>
            <feOffset/>
            <feGaussianBlur stdDeviation="10"/>
            <feComposite in2="hardAlpha" operator="out"/>
            <feColorMatrix type="matrix" values="0 0 0 0 0.109804 0 0 0 0 0.458824 0 0 0 0 0.866667 0 0 0 0.1 0"/>
            <feBlend mode="normal" in2="effect1_dropShadow_15020_123223" result="effect2_dropShadow_15020_123223"/>
            <feBlend mode="normal" in="SourceGraphic" in2="effect2_dropShadow_15020_123223" result="shape"/>
        </filter>
        <filter id="filter5_di_15020_123223" x="181.734" y="272.319" width="85.2227" height="135.646" filterUnits="userSpaceOnUse" color-interpolation-filters="sRGB">
            <feFlood flood-opacity="0" result="BackgroundImageFix"/>
            <feColorMatrix in="SourceAlpha" type="matrix" values="0 0 0 0 0 0 0 0 0 0 0 0 0 0 0 0 0 0 127 0" result="hardAlpha"/>
            <feOffset/>
            <feGaussianBlur stdDeviation="7"/>
            <feComposite in2="hardAlpha" operator="out"/>
            <feColorMatrix type="matrix" values="0 0 0 0 0.438403 0 0 0 0 0.721767 0 0 0 0 0.983333 0 0 0 0.38 0"/>
            <feBlend mode="normal" in2="BackgroundImageFix" result="effect1_dropShadow_15020_123223"/>
            <feBlend mode="normal" in="SourceGraphic" in2="effect1_dropShadow_15020_123223" result="shape"/>
            <feColorMatrix in="SourceAlpha" type="matrix" values="0 0 0 0 0 0 0 0 0 0 0 0 0 0 0 0 0 0 127 0" result="hardAlpha"/>
            <feOffset dy="6"/>
            <feGaussianBlur stdDeviation="1.5"/>
            <feComposite in2="hardAlpha" operator="arithmetic" k2="-1" k3="1"/>
            <feColorMatrix type="matrix" values="0 0 0 0 0.188019 0 0 0 0 0.0931424 0 0 0 0 0.770833 0 0 0 0.1 0"/>
            <feBlend mode="normal" in2="shape" result="effect2_innerShadow_15020_123223"/>
        </filter>
        <linearGradient id="paint0_linear_15020_123223" x1="135" y1="139.5" x2="213" y2="221.5" gradientUnits="userSpaceOnUse">
            <stop stop-color="white"/>
            <stop offset="1" stop-color="#B1C3D3"/>
        </linearGradient>
        <linearGradient id="paint1_linear_15020_123223" x1="135" y1="139.5" x2="213" y2="221.5" gradientUnits="userSpaceOnUse">
            <stop stop-color="white"/>
            <stop offset="1" stop-color="#B1C3D3"/>
        </linearGradient>
        <linearGradient id="paint2_linear_15020_123223" x1="321" y1="188.5" x2="272" y2="364" gradientUnits="userSpaceOnUse">
            <stop stop-color="white"/>
            <stop offset="1" stop-color="#B1C3D3"/>
        </linearGradient>
        <linearGradient id="paint3_linear_15020_123223" x1="321" y1="188.5" x2="272" y2="364" gradientUnits="userSpaceOnUse">
            <stop stop-color="white"/>
            <stop offset="1" stop-color="#B1C3D3"/>
        </linearGradient>
        <linearGradient id="paint4_linear_15020_123223" x1="182.5" y1="304" x2="414.923" y2="523.895" gradientUnits="userSpaceOnUse">
            <stop stop-color="white"/>
            <stop offset="1" stop-color="#B1C3D3"/>
        </linearGradient>
        <linearGradient id="paint5_linear_15020_123223" x1="182.5" y1="304" x2="414.923" y2="523.895" gradientUnits="userSpaceOnUse">
            <stop stop-color="white"/>
            <stop offset="1" stop-color="#B1C3D3"/>
        </linearGradient>
        <linearGradient id="paint6_linear_15020_123223" x1="252.958" y1="286.319" x2="174.833" y2="304.589" gradientUnits="userSpaceOnUse">
            <stop stop-color="#6FE0EE"/>
            <stop offset="1" stop-color="#0F9AE8"/>
        </linearGradient>
    </defs>
</svg>