<svg width="621" height="598" viewBox="0 0 621 598" fill="none" xmlns="http://www.w3.org/2000/svg">
<g filter="url(#filter0_dd_6190_82189)">
<circle cx="307.025" cy="282.916" r="198.126" fill="white"/>
<circle cx="307.025" cy="282.916" r="198.126" fill="url(#paint0_linear_6190_82189)" fill-opacity="0.7"/>
</g>
<g opacity="0.4" filter="url(#filter1_di_6190_82189)">
<path fill-rule="evenodd" clip-rule="evenodd" d="M307.017 455.331C402.239 455.331 479.432 378.138 479.432 282.916C479.432 187.694 402.239 110.501 307.017 110.501C211.794 110.501 134.602 187.694 134.602 282.916C134.602 378.138 211.794 455.331 307.017 455.331ZM307.021 426.595C386.373 426.595 450.7 362.268 450.7 282.916C450.7 203.564 386.373 139.237 307.021 139.237C227.669 139.237 163.341 203.564 163.341 282.916C163.341 362.268 227.669 426.595 307.021 426.595ZM307.023 396.346C369.67 396.346 420.455 345.562 420.455 282.915C420.455 220.269 369.67 169.484 307.023 169.484C244.377 169.484 193.592 220.269 193.592 282.915C193.592 345.562 244.377 396.346 307.023 396.346ZM307.027 367.61C353.803 367.61 391.723 329.691 391.723 282.915C391.723 236.139 353.803 198.22 307.027 198.22C260.252 198.22 222.332 236.139 222.332 282.915C222.332 329.691 260.252 367.61 307.027 367.61ZM367.516 282.916C367.516 316.328 340.43 343.413 307.019 343.413C273.608 343.413 246.523 316.328 246.523 282.916C246.523 249.505 273.608 222.42 307.019 222.42C340.43 222.42 367.516 249.505 367.516 282.916ZM344.831 282.917C344.831 303.799 327.903 320.727 307.021 320.727C286.139 320.727 269.21 303.799 269.21 282.917C269.21 262.035 286.139 245.106 307.021 245.106C327.903 245.106 344.831 262.035 344.831 282.917Z" fill="#2BC1F0"/>
</g>
<circle cx="306.933" cy="282.945" r="15.9681" fill="#8ACAE0"/>
<path d="M68.4988 59.8201C99.3018 88.2333 107.129 104.517 115.696 144.287L65.4296 107.978C65.4296 107.978 54.5148 46.9209 68.4988 59.8201Z" fill="#CEDB56"/>
<path d="M68.4988 59.8201C99.3018 88.2333 107.129 104.517 115.696 144.287L65.4296 107.978C65.4296 107.978 54.5148 46.9209 68.4988 59.8201Z" fill="url(#paint1_linear_6190_82189)"/>
<path d="M23.5699 126.045C60.2735 146.094 77.5018 149.055 115.491 147.126L64.363 112.04C64.363 112.04 6.90698 116.943 23.5699 126.045Z" fill="#E4ED94"/>
<path d="M23.5699 126.045C60.2735 146.094 77.5018 149.055 115.491 147.126L64.363 112.04C64.363 112.04 6.90698 116.943 23.5699 126.045Z" fill="#CEDB56"/>
<path d="M23.5699 126.045C60.2735 146.094 77.5018 149.055 115.491 147.126L64.363 112.04C64.363 112.04 6.90698 116.943 23.5699 126.045Z" fill="url(#paint2_linear_6190_82189)"/>
<g filter="url(#filter2_d_6190_82189)">
<path d="M249.991 266.316C265.035 258.062 269.35 251.942 272.874 234.005C273.03 233.214 274.008 232.914 274.573 233.488C289.746 248.906 298.441 261.147 307.052 281.693C307.337 282.373 306.807 283.118 306.072 283.066C285.077 281.596 268.857 276.422 250.056 268.121C249.295 267.785 249.262 266.717 249.991 266.316Z" fill="#34384A"/>
<path d="M249.991 266.316C265.035 258.062 269.35 251.942 272.874 234.005C273.03 233.214 274.008 232.914 274.573 233.488C289.746 248.906 298.441 261.147 307.052 281.693C307.337 282.373 306.807 283.118 306.072 283.066C285.077 281.596 268.857 276.422 250.056 268.121C249.295 267.785 249.262 266.717 249.991 266.316Z" fill="url(#paint3_linear_6190_82189)"/>
<path d="M249.991 266.316C265.035 258.062 269.35 251.942 272.874 234.005C273.03 233.214 274.008 232.914 274.573 233.488C289.746 248.906 298.441 261.147 307.052 281.693C307.337 282.373 306.807 283.118 306.072 283.066C285.077 281.596 268.857 276.422 250.056 268.121C249.295 267.785 249.262 266.717 249.991 266.316Z" fill="url(#paint4_linear_6190_82189)"/>
</g>
<g filter="url(#filter3_d_6190_82189)">
<path d="M51.3647 100.677C52.1941 99.5126 53.8109 99.2424 54.9738 100.074L276.273 258.262C277.241 258.954 277.468 260.298 276.78 261.269C276.09 262.244 274.739 262.474 273.765 261.782L51.9734 104.285C50.8079 103.457 50.5352 101.841 51.3647 100.677Z" fill="#34384A"/>
<path d="M51.3647 100.677C52.1941 99.5126 53.8109 99.2424 54.9738 100.074L276.273 258.262C277.241 258.954 277.468 260.298 276.78 261.269C276.09 262.244 274.739 262.474 273.765 261.782L51.9734 104.285C50.8079 103.457 50.5352 101.841 51.3647 100.677Z" fill="url(#paint5_linear_6190_82189)"/>
<path d="M51.3647 100.677C52.1941 99.5126 53.8109 99.2424 54.9738 100.074L276.273 258.262C277.241 258.954 277.468 260.298 276.78 261.269C276.09 262.244 274.739 262.474 273.765 261.782L51.9734 104.285C50.8079 103.457 50.5352 101.841 51.3647 100.677Z" fill="url(#paint6_linear_6190_82189)"/>
</g>
<defs>
<filter id="filter0_dd_6190_82189" x="23.8984" y="0.790039" width="596.254" height="596.252" filterUnits="userSpaceOnUse" color-interpolation-filters="sRGB">
<feFlood flood-opacity="0" result="BackgroundImageFix"/>
<feColorMatrix in="SourceAlpha" type="matrix" values="0 0 0 0 0 0 0 0 0 0 0 0 0 0 0 0 0 0 127 0" result="hardAlpha"/>
<feOffset dx="15" dy="16"/>
<feGaussianBlur stdDeviation="50"/>
<feComposite in2="hardAlpha" operator="out"/>
<feColorMatrix type="matrix" values="0 0 0 0 0.109804 0 0 0 0 0.458824 0 0 0 0 0.866667 0 0 0 0.2 0"/>
<feBlend mode="normal" in2="BackgroundImageFix" result="effect1_dropShadow_6190_82189"/>
<feColorMatrix in="SourceAlpha" type="matrix" values="0 0 0 0 0 0 0 0 0 0 0 0 0 0 0 0 0 0 127 0" result="hardAlpha"/>
<feOffset/>
<feGaussianBlur stdDeviation="10"/>
<feComposite in2="hardAlpha" operator="out"/>
<feColorMatrix type="matrix" values="0 0 0 0 0.109804 0 0 0 0 0.458824 0 0 0 0 0.866667 0 0 0 0.1 0"/>
<feBlend mode="normal" in2="effect1_dropShadow_6190_82189" result="effect2_dropShadow_6190_82189"/>
<feBlend mode="normal" in="SourceGraphic" in2="effect2_dropShadow_6190_82189" result="shape"/>
</filter>
<filter id="filter1_di_6190_82189" x="120.602" y="96.501" width="372.832" height="372.831" filterUnits="userSpaceOnUse" color-interpolation-filters="sRGB">
<feFlood flood-opacity="0" result="BackgroundImageFix"/>
<feColorMatrix in="SourceAlpha" type="matrix" values="0 0 0 0 0 0 0 0 0 0 0 0 0 0 0 0 0 0 127 0" result="hardAlpha"/>
<feOffset/>
<feGaussianBlur stdDeviation="7"/>
<feComposite in2="hardAlpha" operator="out"/>
<feColorMatrix type="matrix" values="0 0 0 0 0.438403 0 0 0 0 0.721767 0 0 0 0 0.983333 0 0 0 0.38 0"/>
<feBlend mode="normal" in2="BackgroundImageFix" result="effect1_dropShadow_6190_82189"/>
<feBlend mode="normal" in="SourceGraphic" in2="effect1_dropShadow_6190_82189" result="shape"/>
<feColorMatrix in="SourceAlpha" type="matrix" values="0 0 0 0 0 0 0 0 0 0 0 0 0 0 0 0 0 0 127 0" result="hardAlpha"/>
<feOffset dy="6"/>
<feGaussianBlur stdDeviation="1.5"/>
<feComposite in2="hardAlpha" operator="arithmetic" k2="-1" k3="1"/>
<feColorMatrix type="matrix" values="0 0 0 0 0.188019 0 0 0 0 0.0931424 0 0 0 0 0.770833 0 0 0 0.1 0"/>
<feBlend mode="normal" in2="shape" result="effect2_innerShadow_6190_82189"/>
</filter>
<filter id="filter2_d_6190_82189" x="240.465" y="229.19" width="73.6641" height="65.8784" filterUnits="userSpaceOnUse" color-interpolation-filters="sRGB">
<feFlood flood-opacity="0" result="BackgroundImageFix"/>
<feColorMatrix in="SourceAlpha" type="matrix" values="0 0 0 0 0 0 0 0 0 0 0 0 0 0 0 0 0 0 127 0" result="hardAlpha"/>
<feOffset dx="-1" dy="4"/>
<feGaussianBlur stdDeviation="4"/>
<feComposite in2="hardAlpha" operator="out"/>
<feColorMatrix type="matrix" values="0 0 0 0 0.109804 0 0 0 0 0.458824 0 0 0 0 0.866667 0 0 0 0.19 0"/>
<feBlend mode="normal" in2="BackgroundImageFix" result="effect1_dropShadow_6190_82189"/>
<feBlend mode="normal" in="SourceGraphic" in2="effect1_dropShadow_6190_82189" result="shape"/>
</filter>
<filter id="filter3_d_6190_82189" x="46.8828" y="95.5913" width="258.297" height="194.59" filterUnits="userSpaceOnUse" color-interpolation-filters="sRGB">
<feFlood flood-opacity="0" result="BackgroundImageFix"/>
<feColorMatrix in="SourceAlpha" type="matrix" values="0 0 0 0 0 0 0 0 0 0 0 0 0 0 0 0 0 0 127 0" result="hardAlpha"/>
<feOffset dx="12" dy="12"/>
<feGaussianBlur stdDeviation="8"/>
<feComposite in2="hardAlpha" operator="out"/>
<feColorMatrix type="matrix" values="0 0 0 0 0.109804 0 0 0 0 0.458824 0 0 0 0 0.866667 0 0 0 0.33 0"/>
<feBlend mode="normal" in2="BackgroundImageFix" result="effect1_dropShadow_6190_82189"/>
<feBlend mode="normal" in="SourceGraphic" in2="effect1_dropShadow_6190_82189" result="shape"/>
</filter>
<linearGradient id="paint0_linear_6190_82189" x1="243.926" y1="181.958" x2="493.645" y2="580.945" gradientUnits="userSpaceOnUse">
<stop stop-color="white"/>
<stop offset="1" stop-color="#B1C3D3"/>
</linearGradient>
<linearGradient id="paint1_linear_6190_82189" x1="76.5985" y1="99.4139" x2="108.341" y2="94.7753" gradientUnits="userSpaceOnUse">
<stop stop-color="#CEDB56"/>
<stop offset="1" stop-color="#AEB948"/>
</linearGradient>
<linearGradient id="paint2_linear_6190_82189" x1="61.2245" y1="123.753" x2="64.6428" y2="152.967" gradientUnits="userSpaceOnUse">
<stop stop-color="#CEDB56"/>
<stop offset="1" stop-color="#AEB948"/>
</linearGradient>
<linearGradient id="paint3_linear_6190_82189" x1="287.511" y1="276.472" x2="290.934" y2="230.243" gradientUnits="userSpaceOnUse">
<stop stop-color="#A8AAB3"/>
<stop offset="1" stop-color="#506172"/>
</linearGradient>
<linearGradient id="paint4_linear_6190_82189" x1="269.817" y1="239.357" x2="263.941" y2="273.595" gradientUnits="userSpaceOnUse">
<stop stop-color="#A8AAB3"/>
<stop offset="1" stop-color="#6E808A"/>
</linearGradient>
<linearGradient id="paint5_linear_6190_82189" x1="276.292" y1="260.504" x2="281.73" y2="252.18" gradientUnits="userSpaceOnUse">
<stop stop-color="#34384A"/>
<stop offset="1" stop-color="#506172"/>
</linearGradient>
<linearGradient id="paint6_linear_6190_82189" x1="251.692" y1="243.241" x2="256.498" y2="235.469" gradientUnits="userSpaceOnUse">
<stop stop-color="#A8AAB3"/>
<stop offset="1" stop-color="#6E808A"/>
</linearGradient>
</defs>
</svg>
